<?xml version="1.0" encoding="UTF-8"?>
<svg xmlns="http://www.w3.org/2000/svg" viewBox="0 0 24 24">
  <path d="M12 0C5.383 0 0 5.383 0 12s5.383 12 12 12 12-5.383 12-12S18.617 0 12 0zm-.564 4.8c.6-.012 1.212.06 1.8.216 1.296.348 2.46 1.08 3.372 2.112a7.324 7.324 0 0 1 1.656 3.096c.24.936.264 1.908.084 2.856-.18.948-.54 1.848-1.056 2.652-.516.804-1.188 1.5-1.968 2.04-.78.54-1.656.912-2.568 1.104-.912.192-1.86.192-2.772 0-.912-.192-1.788-.564-2.568-1.104-.78-.54-1.452-1.236-1.968-2.04-.516-.804-.876-1.704-1.056-2.652-.18-.948-.156-1.92.084-2.856.24-1.128.708-2.184 1.38-3.096.672-.912 1.548-1.668 2.556-2.184.756-.384 1.584-.624 2.424-.708.2-.024.4-.036.6-.036zm4.38 4.572c-.072-.084-.192-.132-.312-.132h-1.5c-.12 0-.24.048-.312.132a.426.426 0 0 0-.12.312v5.028c0 .12.048.24.132.312a.426.426 0 0 0 .312.12h1.488c.12 0 .24-.048.312-.132a.426.426 0 0 0 .12-.312V9.684a.426.426 0 0 0-.12-.312zm-7.26-.132h-1.5c-.12 0-.24.048-.312.132a.426.426 0 0 0-.12.312v5.028c0 .12.048.24.132.312a.426.426 0 0 0 .312.12h1.488c.12 0 .24-.048.312-.132a.426.426 0 0 0 .12-.312V9.684a.426.426 0 0 0-.12-.312.426.426 0 0 0-.312-.132zm3.636 0h-1.488c-.12 0-.24.048-.312.132a.426.426 0 0 0-.12.312v5.028c0 .12.048.24.132.312a.426.426 0 0 0 .312.12h1.488c.12 0 .24-.048.312-.132a.426.426 0 0 0 .12-.312V9.684a.426.426 0 0 0-.12-.312.426.426 0 0 0-.324-.132z" fill="#FFCC22"/>
</svg>
