<?xml version="1.0" encoding="UTF-8"?>
<svg xmlns="http://www.w3.org/2000/svg" viewBox="0 0 24 24">
  <path d="M12 0C5.383 0 0 5.383 0 12s5.383 12 12 12 12-5.383 12-12S18.617 0 12 0zm5.844 16.992c-.312.312-.66.468-1.044.468-.384 0-.732-.156-1.044-.468l-3.756-3.756-3.756 3.756c-.312.312-.66.468-1.044.468-.384 0-.732-.156-1.044-.468a1.476 1.476 0 0 1 0-2.088l3.756-3.756-3.756-3.756a1.476 1.476 0 0 1 0-2.088 1.476 1.476 0 0 1 2.088 0l3.756 3.756 3.756-3.756a1.476 1.476 0 0 1 2.088 0 1.476 1.476 0 0 1 0 2.088l-3.756 3.756 3.756 3.756a1.476 1.476 0 0 1 0 2.088z" fill="#6B46C1"/>
</svg>
