<svg version="1.2" xmlns="http://www.w3.org/2000/svg" viewBox="0 0 50 50" width="50" height="50">
	<style>
		.s0 { fill: #f7f7f7 } 
		.s1 { fill: none;stroke: #000000;stroke-linecap: round;stroke-linejoin: round;stroke-width: .4 } 
		.s2 { fill: none;stroke: #45b859;stroke-linecap: round;stroke-linejoin: round;stroke-width: 2 } 
	</style>
	<g>
		<path class="s0" d="m45.13 25c-0.01 11.05-8.96 20-20.01 20-2.66 0-5.19-0.52-7.52-1.46-0.44-0.18-0.66-0.27-0.84-0.31-0.18-0.04-0.31-0.06-0.49-0.06-0.18 0-0.38 0.04-0.78 0.1l-7.91 1.32c-0.83 0.14-1.24 0.21-1.54 0.08q-0.41-0.18-0.58-0.58c-0.13-0.3-0.06-0.72 0.07-1.54l1.32-7.91c0.07-0.4 0.1-0.6 0.1-0.79 0-0.18-0.01-0.31-0.05-0.48-0.04-0.18-0.13-0.4-0.31-0.85-0.95-2.32-1.47-4.86-1.47-7.52 0-11.05 8.96-20 20-20 11.05 0 20 8.95 20 20z"/>
		<path class="s1" d="m45.13 25c-0.01 11.05-8.96 20-20.01 20-2.66 0-5.19-0.52-7.52-1.46-0.44-0.18-0.66-0.27-0.84-0.31-0.18-0.04-0.31-0.06-0.49-0.06-0.18 0-0.38 0.04-0.78 0.1l-7.91 1.32c-0.83 0.14-1.24 0.21-1.54 0.08q-0.41-0.18-0.58-0.58c-0.13-0.3-0.06-0.72 0.07-1.54l1.32-7.91c0.07-0.4 0.1-0.6 0.1-0.79 0-0.18-0.01-0.31-0.05-0.48-0.04-0.18-0.13-0.4-0.31-0.85-0.95-2.32-1.47-4.86-1.47-7.52 0-11.05 8.96-20 20-20 11.05 0 20 8.95 20 20z"/>
	</g>
	<path class="s2" d="m35.13 25c-0.01 5.52-4.48 10-10.01 10-5.52 0-10-4.48-10-10 0-5.52 4.48-10 10-10 5.53 0 10 4.48 10 10zm-6.5-3c0 0.28-0.22 0.5-0.5 0.5-0.27 0-0.5-0.22-0.5-0.5 0-0.28 0.23-0.5 0.5-0.5 0.28 0 0.5 0.22 0.5 0.5zm-6 0c0 0.28-0.22 0.5-0.5 0.5-0.27 0-0.5-0.22-0.5-0.5 0-0.28 0.23-0.5 0.5-0.5 0.28 0 0.5 0.22 0.5 0.5zm-1.5 5c0 0 1.5 2 4 2 2.5 0 4-2 4-2m-1-5h0.01m-6.01 0h0.01"/>
</svg>