<svg width="81" height="50" viewBox="0 0 81 50" fill="none" xmlns="http://www.w3.org/2000/svg">
<g filter="url(#filter0_d_193_286)">
<path d="M60.125 25C60.125 36.0457 51.1707 45 40.125 45C37.4647 45 34.9257 44.4806 32.6039 43.5376C32.1595 43.3572 31.9373 43.2669 31.7577 43.2267C31.582 43.1873 31.452 43.1729 31.272 43.1729C31.0879 43.1729 30.8874 43.2063 30.4864 43.2731L22.58 44.5908C21.7521 44.7288 21.3381 44.7978 21.0387 44.6694C20.7767 44.557 20.568 44.3483 20.4556 44.0863C20.3272 43.7869 20.3962 43.3729 20.5342 42.545L21.8519 34.6386C21.9187 34.2376 21.9521 34.0371 21.9521 33.853C21.9521 33.673 21.9377 33.543 21.8983 33.3673C21.8581 33.1877 21.7678 32.9655 21.5874 32.5211C20.6444 30.1993 20.125 27.6603 20.125 25C20.125 13.9543 29.0793 5 40.125 5C51.1707 5 60.125 13.9543 60.125 25Z" fill="#F7F7F7"/>
<path d="M60.125 25C60.125 36.0457 51.1707 45 40.125 45C37.4647 45 34.9257 44.4806 32.6039 43.5376C32.1595 43.3572 31.9373 43.2669 31.7577 43.2267C31.582 43.1873 31.452 43.1729 31.272 43.1729C31.0879 43.1729 30.8874 43.2063 30.4864 43.2731L22.58 44.5908C21.7521 44.7288 21.3381 44.7978 21.0387 44.6694C20.7767 44.557 20.568 44.3483 20.4556 44.0863C20.3272 43.7869 20.3962 43.3729 20.5342 42.545L21.8519 34.6386C21.9187 34.2376 21.9521 34.0371 21.9521 33.853C21.9521 33.673 21.9377 33.543 21.8983 33.3673C21.8581 33.1877 21.7678 32.9655 21.5874 32.5211C20.6444 30.1993 20.125 27.6603 20.125 25C20.125 13.9543 29.0793 5 40.125 5C51.1707 5 60.125 13.9543 60.125 25Z" stroke="black" stroke-width="0.25" stroke-linecap="round" stroke-linejoin="round"/>
</g>
<path d="M36.125 27C36.125 27 37.625 29 40.125 29C42.625 29 44.125 27 44.125 27M43.125 22H43.135M37.125 22H37.135M50.125 25C50.125 30.5228 45.6478 35 40.125 35C34.6022 35 30.125 30.5228 30.125 25C30.125 19.4772 34.6022 15 40.125 15C45.6478 15 50.125 19.4772 50.125 25ZM43.625 22C43.625 22.2761 43.4011 22.5 43.125 22.5C42.8489 22.5 42.625 22.2761 42.625 22C42.625 21.7239 42.8489 21.5 43.125 21.5C43.4011 21.5 43.625 21.7239 43.625 22ZM37.625 22C37.625 22.2761 37.4011 22.5 37.125 22.5C36.8489 22.5 36.625 22.2761 36.625 22C36.625 21.7239 36.8489 21.5 37.125 21.5C37.4011 21.5 37.625 21.7239 37.625 22Z" stroke="#45B859" stroke-width="2" stroke-linecap="round" stroke-linejoin="round"/>
<defs>
<filter id="filter0_d_193_286" x="0" y="-11.125" width="80.25" height="80.25" filterUnits="userSpaceOnUse" color-interpolation-filters="sRGB">
<feFlood flood-opacity="0" result="BackgroundImageFix"/>
<feColorMatrix in="SourceAlpha" type="matrix" values="0 0 0 0 0 0 0 0 0 0 0 0 0 0 0 0 0 0 127 0" result="hardAlpha"/>
<feOffset dy="4"/>
<feGaussianBlur stdDeviation="10"/>
<feComposite in2="hardAlpha" operator="out"/>
<feColorMatrix type="matrix" values="0 0 0 0 0 0 0 0 0 0 0 0 0 0 0 0 0 0 0.25 0"/>
<feBlend mode="normal" in2="BackgroundImageFix" result="effect1_dropShadow_193_286"/>
<feBlend mode="normal" in="SourceGraphic" in2="effect1_dropShadow_193_286" result="shape"/>
</filter>
</defs>
</svg>
