<svg width="30" height="30" viewBox="0 0 30 30" fill="none" xmlns="http://www.w3.org/2000/svg">
<path d="M15 0L16.9522 7.80899C17.3332 9.33277 17.5237 10.0947 17.9204 10.7146C18.2713 11.263 18.737 11.7287 19.2854 12.0796C19.9053 12.4763 20.6672 12.6668 22.191 13.0478L30 15L22.191 16.9522C20.6672 17.3332 19.9053 17.5237 19.2854 17.9204C18.737 18.2713 18.2713 18.737 17.9204 19.2854C17.5237 19.9053 17.3332 20.6672 16.9522 22.191L15 30L13.0478 22.191C12.6668 20.6672 12.4763 19.9053 12.0796 19.2854C11.7287 18.737 11.263 18.2713 10.7146 17.9204C10.0947 17.5237 9.33277 17.3332 7.80898 16.9522L0 15L7.80899 13.0478C9.33277 12.6668 10.0947 12.4763 10.7146 12.0796C11.263 11.7287 11.7287 11.263 12.0796 10.7146C12.4763 10.0947 12.6668 9.33277 13.0478 7.80898L15 0Z" fill="url(#paint0_linear_193_135)"/>
<path d="M15 0L16.9522 7.80899C17.3332 9.33277 17.5237 10.0947 17.9204 10.7146C18.2713 11.263 18.737 11.7287 19.2854 12.0796C19.9053 12.4763 20.6672 12.6668 22.191 13.0478L30 15L22.191 16.9522C20.6672 17.3332 19.9053 17.5237 19.2854 17.9204C18.737 18.2713 18.2713 18.737 17.9204 19.2854C17.5237 19.9053 17.3332 20.6672 16.9522 22.191L15 30L13.0478 22.191C12.6668 20.6672 12.4763 19.9053 12.0796 19.2854C11.7287 18.737 11.263 18.2713 10.7146 17.9204C10.0947 17.5237 9.33277 17.3332 7.80898 16.9522L0 15L7.80899 13.0478C9.33277 12.6668 10.0947 12.4763 10.7146 12.0796C11.263 11.7287 11.7287 11.263 12.0796 10.7146C12.4763 10.0947 12.6668 9.33277 13.0478 7.80898L15 0Z" fill="url(#paint1_linear_193_135)"/>
<defs>
<linearGradient id="paint0_linear_193_135" x1="15" y1="0" x2="15" y2="28" gradientUnits="userSpaceOnUse">
<stop stop-color="#0055A5"/>
<stop offset="0.418255" stop-color="#1488CC"/>
<stop offset="1" stop-color="#C5E5FF"/>
</linearGradient>
<linearGradient id="paint1_linear_193_135" x1="15" y1="0" x2="15" y2="28" gradientUnits="userSpaceOnUse">
<stop stop-color="#0055A5"/>
<stop offset="0.418255" stop-color="#1488CC"/>
<stop offset="1" stop-color="#C5E5FF"/>
</linearGradient>
</defs>
</svg>
