<?xml version="1.0" encoding="UTF-8"?>
<svg xmlns="http://www.w3.org/2000/svg" viewBox="0 0 24 24">
  <path d="M23 1.5q.41 0 .7.3.3.29.3.7v19q0 .41-.3.7-.29.3-.7.3H7q-.41 0-.7-.3-.3-.29-.3-.7V18H1q-.41 0-.7-.3-.3-.29-.3-.7V7q0-.41.3-.7Q.58 6 1 6h5V2.5q0-.41.3-.7.29-.3.7-.3zM14.25 21v-3H7.5v3zm0-4.5v-3.75H7.5v3.75zm0-5.25V7.5H7.5v3.75zm0-5.25V3H7.5v3zm8.25 15v-3h-6.75v3zm0-4.5v-3.75h-6.75v3.75zm0-5.25V7.5h-6.75v3.75zm0-5.25V3h-6.75v3zM5.2 16.8L2.6 12l2.6-4.8h2.4L4.8 12l2.8 4.8H5.2z" fill="#7719AA"/>
</svg>
