<?xml version="1.0" encoding="UTF-8"?>
<svg xmlns="http://www.w3.org/2000/svg" viewBox="0 0 24 24">
  <path d="M23 1.5q.41 0 .7.3.3.29.3.7v19q0 .41-.3.7-.29.3-.7.3H7q-.41 0-.7-.3-.3-.29-.3-.7V18H1q-.41 0-.7-.3-.3-.29-.3-.7V7q0-.41.3-.7Q.58 6 1 6h5V2.5q0-.41.3-.7.29-.3.7-.3zM14.25 21v-3H7.5v3zm0-4.5v-3.75H7.5v3.75zm0-5.25V7.5H7.5v3.75zm0-5.25V3H7.5v3zm8.25 15v-3h-6.75v3zm0-4.5v-3.75h-6.75v3.75zm0-5.25V7.5h-6.75v3.75zm0-5.25V3h-6.75v3zM3 8.03v7.94h2.97v-3.03h1.5q.88 0 1.59-.35.72-.35 1.11-.98.4-.63.4-1.42 0-.8-.4-1.42-.39-.63-1.11-.98-.71-.35-1.59-.35H3zm2.97 3.03V9.91h1.5q.52 0 .77.28.25.28.25.7 0 .42-.25.7-.25.28-.77.28H5.97z" fill="#D24726"/>
</svg>
