<?xml version="1.0" encoding="UTF-8"?>
<svg xmlns="http://www.w3.org/2000/svg" viewBox="0 0 24 24">
  <path d="M11.5 10.5H8.5V13.5H11.5V10.5Z" fill="#5059C9"/>
  <path d="M19.5 5.5H17.5V8.5H14.5V10.5H17.5V13.5H19.5V10.5H22.5V8.5H19.5V5.5Z" fill="#5059C9"/>
  <path d="M11.5 4.5C11.5 3.4 10.6 2.5 9.5 2.5C8.4 2.5 7.5 3.4 7.5 4.5C7.5 5.6 8.4 6.5 9.5 6.5C10.6 6.5 11.5 5.6 11.5 4.5Z" fill="#7B83EB"/>
  <path d="M19.5 4.5C19.5 3.4 18.6 2.5 17.5 2.5C16.4 2.5 15.5 3.4 15.5 4.5C15.5 5.6 16.4 6.5 17.5 6.5C18.6 6.5 19.5 5.6 19.5 4.5Z" fill="#7B83EB"/>
  <path d="M13.5 15.5H7.5C6.4 15.5 5.5 16.4 5.5 17.5V19.5H15.5V17.5C15.5 16.4 14.6 15.5 13.5 15.5Z" fill="#5059C9"/>
  <path d="M21.5 15.5H15.5C14.4 15.5 13.5 16.4 13.5 17.5V19.5H23.5V17.5C23.5 16.4 22.6 15.5 21.5 15.5Z" fill="#5059C9"/>
  <path d="M13.5 8.5H5.5C4.4 8.5 3.5 9.4 3.5 10.5V15.5H15.5V10.5C15.5 9.4 14.6 8.5 13.5 8.5Z" fill="#7B83EB"/>
</svg>
