<?xml version="1.0" encoding="UTF-8"?>
<svg xmlns="http://www.w3.org/2000/svg" viewBox="0 0 24 24">
  <path d="M23.004 1.5q.41 0 .703.293t.293.703v19.008q0 .41-.293.703t-.703.293H6.996q-.41 0-.703-.293T6 21.504V18H1q-.41 0-.703-.293T0 17.004V6.996q0-.41.293-.703T1 6h5V2.496q0-.41.293-.703t.703-.293zM22.5 21v-3h-15v3zm0-4.5v-3.75h-15v3.75zm0-5.25V7.5h-15v3.75zm0-5.25V3h-15v3zm-6.234 13.361h-1.957l-2.164-9.362h1.827l1.242 6.123.375 1.998.305-1.716 1.137-6.405h1.664l1.137 6.405.305 1.716.375-1.998 1.242-6.123h1.827l-2.164 9.362h-1.957l-1.195-6.592-.305-1.898-.305 1.898z" fill="#2B579A"/>
</svg>
