<svg width="42" height="42" viewBox="0 0 42 42" fill="none" xmlns="http://www.w3.org/2000/svg">
<path d="M7.02016 25H33.3787C35.411 25 36.4272 25 37.2362 24.6223C37.9488 24.2897 38.5476 23.7555 38.958 23.0863C39.424 22.3267 39.5362 21.32 39.7606 19.3068L40.9345 8.77669C41.003 8.16176 41.0373 7.8543 40.9381 7.61632C40.851 7.40731 40.6953 7.23394 40.4965 7.12455C40.2702 7 39.9598 7 39.339 7H6.01685M1 1H3.50515C4.03615 1 4.30165 1 4.50937 1.10065C4.69223 1.18926 4.84377 1.33115 4.9439 1.50752C5.05764 1.70787 5.07421 1.97198 5.10733 2.50019L6.92581 31.4998C6.95893 32.028 6.9755 32.2921 7.08924 32.4925C7.18937 32.6689 7.34091 32.8107 7.52377 32.8994C7.73149 33 7.99699 33 8.52799 33H35.1127M12.0365 40H12.0565M30.0961 40H30.1162M13.0398 40C13.0398 40.5523 12.5906 41 12.0365 41C11.4823 41 11.0331 40.5523 11.0331 40C11.0331 39.4477 11.4823 39 12.0365 39C12.5906 39 13.0398 39.4477 13.0398 40ZM31.0994 40C31.0994 40.5523 30.6502 41 30.0961 41C29.542 41 29.0928 40.5523 29.0928 40C29.0928 39.4477 29.542 39 30.0961 39C30.6502 39 31.0994 39.4477 31.0994 40Z" stroke="white" stroke-width="2" stroke-linecap="round" stroke-linejoin="round"/>
</svg>
