<svg width="44" height="42" viewBox="0 0 44 42" fill="none" xmlns="http://www.w3.org/2000/svg">
<path d="M9.4 9.36763L18.85 18.7812M9.4 9.36763H3.1L1 3.09191L3.1 1L9.4 3.09191V9.36763ZM37.2439 2.55013L31.7259 8.04686C30.8942 8.87529 30.4784 9.28951 30.3226 9.76715C30.1856 10.1873 30.1856 10.6399 30.3226 11.06C30.4784 11.5377 30.8942 11.9519 31.7259 12.7803L32.2241 13.2766C33.0558 14.1051 33.4716 14.5193 33.9511 14.6745C34.3728 14.811 34.8272 14.811 35.2489 14.6745C35.7284 14.5193 36.1442 14.1051 36.9759 13.2766L42.1375 8.1349C42.6934 9.48244 43 10.9583 43 12.5055C43 18.8598 37.8289 24.011 31.45 24.011C30.681 24.011 29.9295 23.9361 29.2025 23.7933C28.1816 23.5927 27.6711 23.4924 27.3617 23.5232C27.0327 23.5558 26.8706 23.6049 26.5791 23.7603C26.3049 23.9065 26.0298 24.1805 25.4798 24.7284L10.45 39.7003C8.7103 41.4332 5.8897 41.4332 4.15 39.7003C2.41031 37.9673 2.41031 35.1575 4.15 33.4245L19.1798 18.4527C19.7298 17.9048 20.0049 17.6308 20.1516 17.3576C20.3076 17.0673 20.3569 16.9058 20.3897 16.578C20.4205 16.2698 20.3199 15.7613 20.1185 14.7443C19.9752 14.0202 19.9 13.2716 19.9 12.5055C19.9 6.15118 25.0711 1 31.45 1C33.5616 1 35.5408 1.56444 37.2439 2.55013ZM22.0001 28.1947L33.55 39.7001C35.2897 41.433 38.1103 41.433 39.85 39.7001C41.5897 37.9671 41.5897 35.1573 39.8499 33.4243L30.3482 23.9593C29.6755 23.8959 29.0197 23.775 28.3856 23.6017C27.5686 23.3783 26.6724 23.5404 26.0733 24.1372L22.0001 28.1947Z" stroke="white" stroke-width="2" stroke-linecap="round" stroke-linejoin="round"/>
</svg>
