<svg width="30" height="42" viewBox="0 0 30 42" fill="none" xmlns="http://www.w3.org/2000/svg">
<path d="M10 41H20M11 17H19M15 17L15 29M21 27.6527C25.7299 25.4058 29 20.5848 29 15C29 7.26801 22.732 1 15 1C7.26801 1 1 7.26801 1 15C1 20.5848 4.27011 25.4058 9 27.6527V29C9 30.8638 9 31.7956 9.30448 32.5307C9.71046 33.5108 10.4892 34.2895 11.4693 34.6955C12.2044 35 13.1362 35 15 35C16.8638 35 17.7956 35 18.5307 34.6955C19.5108 34.2895 20.2895 33.5108 20.6955 32.5307C21 31.7956 21 30.8638 21 29V27.6527Z" stroke="white" stroke-width="2" stroke-linecap="round" stroke-linejoin="round"/>
</svg>
