<svg width="40" height="42" viewBox="0 0 40 42" fill="none" xmlns="http://www.w3.org/2000/svg">
<path d="M15.7778 12.7905C16.1497 11.7172 16.8839 10.8122 17.8503 10.2357C18.8167 9.65917 19.9529 9.44844 21.0577 9.64079C22.1625 9.83314 23.1646 10.4162 23.8864 11.2866C24.6083 12.157 25.0034 13.2587 25.0017 14.3965C25.0017 17.6083 20.2553 19.2143 20.2553 19.2143M20.3165 25.6429H20.3376M15.5667 35.7143L18.6489 39.8857C19.1073 40.5061 19.3364 40.8162 19.6174 40.9271C19.8635 41.0243 20.1365 41.0243 20.3826 40.9271C20.6636 40.8162 20.8928 40.5061 21.3511 39.8857L24.4333 35.7143C25.0522 34.8767 25.3616 34.4579 25.7391 34.1382C26.2423 33.7119 26.8364 33.4104 27.4744 33.2575C27.9528 33.1429 28.4686 33.1429 29.5 33.1429C32.451 33.1429 33.9264 33.1429 35.0903 32.6535C36.6422 32.0011 37.8751 30.7496 38.5179 29.1744C39 27.993 39 26.4953 39 23.5V11.2857C39 7.68538 39 5.88521 38.3097 4.51006C37.7025 3.30045 36.7336 2.317 35.5419 1.70067C34.1872 1 32.4137 1 28.8667 1H11.1333C7.58633 1 5.81284 1 4.45806 1.70067C3.26637 2.317 2.29749 3.30045 1.69029 4.51006C1 5.88521 1 7.68538 1 11.2857V23.5C1 26.4953 1 27.993 1.4821 29.1744C2.12489 30.7496 3.35783 32.0011 4.90967 32.6535C6.07356 33.1429 7.54904 33.1429 10.5 33.1429C11.5314 33.1429 12.0472 33.1429 12.5256 33.2575C13.1636 33.4104 13.7577 33.7119 14.2609 34.1382C14.6384 34.4579 14.9478 34.8767 15.5667 35.7143Z" stroke="white" stroke-width="2" stroke-linecap="round" stroke-linejoin="round"/>
</svg>
