<svg width="37" height="37" viewBox="0 0 37 37" fill="none" xmlns="http://www.w3.org/2000/svg">
<path d="M4.50004 35.6805C5.55455 36 6.97886 36 9.4 36H27.6C30.0211 36 31.4454 36 32.5 35.6805M4.50004 35.6805C4.27394 35.612 4.06483 35.5288 3.86655 35.4278C2.8787 34.9244 2.07555 34.1213 1.57222 33.1334C1 32.0104 1 30.5403 1 27.6V9.4C1 6.45972 1 4.98959 1.57222 3.86655C2.07555 2.8787 2.8787 2.07555 3.86655 1.57222C4.98959 1 6.45972 1 9.4 1H27.6C30.5403 1 32.0104 1 33.1334 1.57222C34.1213 2.07555 34.9244 2.8787 35.4278 3.86655C36 4.98959 36 6.45972 36 9.4V27.6C36 30.5403 36 32.0104 35.4278 33.1334C34.9244 34.1213 34.1213 34.9244 33.1334 35.4278C32.9352 35.5288 32.7261 35.612 32.5 35.6805M4.50004 35.6805C4.50062 34.2642 4.50911 33.5148 4.6345 32.8844C5.18685 30.1075 7.35753 27.9368 10.1344 27.3845C10.8106 27.25 11.6237 27.25 13.25 27.25H23.75C25.3763 27.25 26.1894 27.25 26.8656 27.3845C29.6425 27.9368 31.8132 30.1075 32.3655 32.8844C32.4909 33.5148 32.4994 34.2642 32.5 35.6805M25.5 14.125C25.5 17.991 22.366 21.125 18.5 21.125C14.634 21.125 11.5 17.991 11.5 14.125C11.5 10.259 14.634 7.125 18.5 7.125C22.366 7.125 25.5 10.259 25.5 14.125Z" stroke="white" stroke-width="2" stroke-linecap="round" stroke-linejoin="round"/>
</svg>
